<?xml version="1.0" encoding="utf-8"?>
<!-- Generator: Adobe Illustrator 19.0.0, SVG Export Plug-In . SVG Version: 6.00 Build 0)  -->
<svg version="1.1" id="Layer_1" xmlns="http://www.w3.org/2000/svg" xmlns:xlink="http://www.w3.org/1999/xlink" x="0px" y="0px"
	 viewBox="0 0 1400 1200" style="enable-background:new 0 0 1400 1200;" xml:space="preserve">
<path id="XMLID_801_" d="M562.2,621.2c7.8-6.5,16.6-11.3,25.8-15.4c2.6,3.1,3.1,6.4,2.5,10.4c-0.4,2.7-2.6,5.8,0.2,8.6
	c0.2,0.2-0.2,0.8-0.3,1.2c-0.5,2.6-1.3,5.3-1.6,7.9c-0.6,4.9-0.7,9.8-1.4,14.6c-1,6.8-4,13.2-4.2,20.2c-0.2,4.8-1,9.5-1.1,14.3
	c-0.1,7.1,1.1,14.2-0.5,21.2c-0.1,0.5,0,1.2,0.3,1.7c2.7,6.1,4.7,12.7,10,17.2c2.3,2,4.2,5,7.9,4.8c4-0.2,7.8,0.7,11.6,1.9
	c4.6,1.4,9.1,1.3,13.7-0.3c1.1-0.4,2.3-0.5,3.5-0.7c0.3,0.4,0.5,0.8,0.8,1.2c-1.5,1.2-3,2.5-4.9,4.1c1.2,0,2.1,0.2,2.9,0
	c4.7-1.6,9.3-3.2,13.9-4.9c1.6-0.6,3-1.9,4.7-2.4c7.3-1.8,14-5,20.2-9.1c4-2.7,7.5-6,11.3-8.8c5.9-4.2,10.2-9.9,14.6-15.2
	c-1.8-0.9-3.3-1.6-5-2.4c-0.8,0.6-1.5,1.3-2.3,1.9c-0.8,0.6-1.6,1.2-2.7,1.9c-1.1-2.2-2.3-1.6-3.6-0.4c-1,0.9-1.8,2.5-3.9,1.5
	c0.1-0.8,0.1-1.7,0.2-2.2c-1.6,0.8-3.5,1.2-4.7,2.3c-1.5,1.4-2.8,2.9-5.3,2.7c3-3.6,5.8-7,8.8-10.6c-1.2-0.3-1.8-0.4-2.9-0.7
	c1.6-3.9,6.1-5.3,7.4-9.2c-2.3,1.1-4.2,2.5-6.1,4c-2.2,1.8-2.4,1.8-5.2-0.5c4-6.6,4-6.6,2-9.6c-5.1,5.4-4.8,5.9-17.5,10.5
	c-0.4-0.7-0.8-1.3-1.3-2.1c-8.6,5.1-15.9,13.5-27.7,11.3c0.1-1,0-2,0.3-2.9c1.9-5.2,4.1-10.2,5.7-15.5c1-3.3,2.6-5.5,6-6
	c1.1-2.8,2.3-5.5,3.3-8.2c2.3-6.4,4.1-13.1,7-19.3c3.2-6.8,5.1-13.9,7.6-20.9c2.4-6.7,2.4-13.7,1.8-20.7c-0.2-2.6-0.9-5.2-1.5-7.7
	c-0.9-3.9-2.8-7.4-6.3-9.6c-1.3-0.8-2.9-1.3-4.3-2c-4.5-2-9-4-13.6-5.9c-1.2-0.5-2.6-0.4-3.9-0.4c-2,0-4.1-0.1-6.1,0.1
	c-5.7,0.5-10.8-2.3-16.2-3.2c-6.7-1.2-13.3-3.6-20.2-1.4c-0.6,0.2-1.4-0.1-2.6-0.2c1.1-3.4,2.2-6.5,3.3-9.6c0.9-2.6,2.2-5.1,2.5-7.8
	c1-8,3.7-15.5,5.3-23.3c1-5,2.2-10.2,1.6-15.1c-0.6-5.4-0.6-10.7-0.2-16c0.4-5.8,1.4-11.5,2.2-17.3c0.1-0.9,0.1-1.8,0-2.6
	c-2-10-3.6-20.1-10.4-28.3c-1.1-1.3-1.8-3.6-1.5-5.2c0.8-4.8-1.5-8-4.9-11.4c-3.4,2.7-7.4,2.9-11.5,1.6
	c-5.6,21.5-14.8,41.1-22.1,62.5c1.6-1.1,2.2-1.6,3.3-2.3c0.1,1.3,0.3,2.4,0.2,3.4c-0.1,1-0.6,1.9-0.6,2.9c0.5,6.9-1.4,13.1-5,18.9
	c-0.8,1.2-1.6,2.4-2.2,3.8c-3.5,8-7,16-10.4,24c-5.1,12.5-10,25.1-15.2,37.6c-1.7,4.1-4.1,8-6.3,11.9c-0.6,1.1-1.9,1.8-2.6,2.9
	c-1.1,1.7-2.1,3.4-3.1,5.2c-1,1.8-1.7,3.7-2.9,5.4c-1.2,1.7-2.5,3.6-4.2,4.7c-1.8,1.2-0.6,3.2-2.1,4.6c-2.4,2.1-4.2,4.8-6.1,7.3
	c-1.7,2.3-3.7,4.1-6.8,4.2c-0.6,0-1.2,0.6-1.8,1c-3.3,2.8-6.5,5.7-9.9,8.6c-0.5,0.4-1.2,0.6-2.3,1.2c0.6-4.6,1.9-8.2,4.1-11.7
	c-0.8-1.9-1.7-3.8-2.4-5.5c-0.1-2.8,3.3-4.8,0.8-7.7c-0.2-0.2,0.2-1.1,0.4-1.6c1.6-4.2,3.3-8.4,5-12.5c2-5,2.9-10.3,3.2-15.6
	c0.4-5.6-2.7-9.6-7.9-11.4c-4.3-1.5-8.6-3.3-12.9-5c-2.5-1-5.9,0.4-7.2,3.1c-0.2,0.4-0.4,0.7-0.7,1.2h-3.6c-1.1,2.1-2.1,4-3.5,6.5
	c-0.7-2-1.2-3.3-1.6-4.6c-1.4-0.3-2.8-0.6-4.2-0.9c-0.7,2.3-1.3,4.5-2,6.7c-3.1,9.4-6.3,18.8-9.3,28.2c-0.9,2.7-2.2,4.9-4,7.1
	c-3.2,3.7-6.3,7.6-9.2,11.6c-7.5,10.4-15.2,20.7-21.9,31.6c-3.1,5.1-7.2,9.6-10.8,14.3c-1.1,1.4-2.2,2.7-4.7,1.6
	c1.8-3,2.5-6.1,1.5-9.8c-1.3,2-2.4,3.9-3.7,5.7c-4.1,5.5-8.1,11-12.4,16.3c-2.1,2.6-4.2,5.5-7,7c-3.7,2-6.6,4.7-9.7,7.3
	c-1.3,1.1-2.8,2.2-4.3,3.1c-0.7,0.4-1.8,0.4-3,0.6c0.5-4.8,0.4-9.2,1.3-13.4c2.3-11.1,8.4-20.6,14.3-30.1c4.4-7,10.3-13.1,13.4-20.9
	c1.2-3,3.2-5.4,5.7-7.5c1.7-1.4,3-3.5,4.3-5.4c3.1-4.9,6-9.9,8.9-14.9c1-1.6,2.3-3.1,2.9-4.8c0.9-2.8,2.3-5.1,4.5-7.1
	c2.3-2,4.3-4.3,6.5-6.4c11-10.6,24.2-17.6,38.6-22.3c6.4-2.1,12.1-4.8,16.2-10.6c-0.8-0.7-1.4-1.5-2.3-2c-3.2-1.8-6.3-3.6-9.6-5.1
	c-3-1.4-6.1-1.7-9.1,0.6c-0.6,0.5-1.6,0.8-2.5,0.8c-5.7,0-10.3,3.1-15,5.5c-13.9,7.3-27,16.1-40,24.9c0.4,3.7-1,5.8-4.1,6.5
	c-0.7,0.1-1.6,0-1.9,0.4c-5.2,5.3-11.5,9.5-15.9,15.6c-0.9,1.3-2.3,2.2-3.3,3.5c-1.8,2.4-4.6,4.7-5,7.4c-0.5,2.8-1.6,4.7-3.3,6.8
	c-1.3,1.5-2.1,3.4-3.2,5.1c-1,1.4-1.8,3.2-3.1,4.1c-2.9,1.9-5,4-4.7,7.7c0,0.5-0.4,1-0.7,1.5c-3,5.1-6.1,10.2-9,15.4
	c-2.5,4.6-4.8,9.3-7.2,13.9c-1.9,3.6-3.8,7.2-5.7,10.8c-0.8,1.5-1.8,3.2-1.9,4.8c-0.3,4.7-1.3,9.3-1.1,14.1
	c0.4,6.8,1.6,13.2,4.8,19.2c2.6,4.8,6.6,8.7,12.3,9.5c3.3,0.5,5.9,1.5,7.2,4.2c1.6,0.2,2.9,0.4,4.1,0.5c4.8,0.5,9.6,1.4,14.2-0.7
	c3.5-1.5,6.9-3,10.2-4.8c3.8-2.1,7.2-5.1,11.1-6.8c5.6-2.5,9.8-6.7,14-10.9c3.6-3.6,7-7.4,10.7-10.9c4.3-4.2,8.3-8.5,11.4-13.7
	c1.2-2,2.9-3.8,4.3-5.7c0.7,0.6,1,0.7,1.2,0.9c2,3,4.1,5.6,8.2,5.7c1,0,2,1.1,2.9,1.8c0.9,0.7,1.7,1.5,2.6,2.2
	c1.5,1.3,3.2,2.4,4.6,3.8c1.6,1.7,2.8,3.7,4.6,5.3c1.3,1.2,3.1,2.5,4.8,2.7c2.8,0.3,5.6,0.4,8.3,0.6c2.1,0.1,3.9,0.2,5.8,1.4
	c3.3,2.2,7.1,1.7,9.9-0.2c2.3-1.5,4.2-1.2,6.2-1.2c0.9,6.4,4.1,11.3,8.7,16.2c0.4-2.1,0.7-3.4,1-4.8c3.4,1,0.9,6,5.1,6
	c2.8-0.1,4-2.9,6.1-5.6c0,3.6,1.2,5.9,3.7,7.2c1.5,0.8,1.4,2,1.8,3.2c0.1,0.2,0.4,0.3,0.6,0.5c1-0.5,2-1,3.1-1.6
	c1.2,0.8,2.2,1.6,2.9,2.1c1.1-0.5,1.8-0.8,2.6-1.1c0.6-0.2,1.5-0.2,1.8-0.6c1.6-2.7,4.3-4.7,4.4-8.2c0.1-1.7,0.8-3.4,1.4-5
	c3.9-9.7,7.9-19.4,11.8-29.1c2.5-6.2,4.7-12.5,7.3-18.6c2.4-5.8,5.1-11.4,7.9-17c1.4-2.8,3.3-5.5,5.2-8c2.7-3.5,5.5-6.8,8.5-10
	C554.2,629.3,557.9,624.9,562.2,621.2z M591.2,710.1c2.1,0.7,3.9,1.5,3.6,4.2C591.1,714.6,591,714.5,591.2,710.1z M407.8,582.5
	c-1.9,3.2-6.8,6.4-11,6.9C400.4,587.3,403.1,583.7,407.8,582.5z M386,595.9c-0.2,0.5-0.3,1.2-0.6,1.4c-3.6,2-7.3,4-11,5.9
	c-0.3,0.2-1-0.2-1.6-0.4C376.4,598.4,381.9,595.5,386,595.9z M305.7,602.7c4.6-2.8,9-5.8,13.8-8.2c2.9-1.4,5-3.3,6.9-5.8
	c0.2-0.3,0.1-0.8,0.2-1.2c-1.2-0.4-2.3-0.7-4.3-1.3c3.3-1.7,5.7-2.9,8.1-4.1c-1.6-1.6-0.6-2.7,0.7-3.6c2-1.3,3.9-2.5,6-3.5
	c5.9-2.9,11.7-5.9,16.7-10.1c2.3-2,4.8-3.8,7.4-5.4c4.7-3,9.3-6,12.4-10.6c-0.1-2-0.8-4.2-0.2-5.9c1.3-3.5,2.5-7.2,5.4-9.9
	c0.9-0.8,1.5-2.2,1.6-3.4c0.2-1.5-0.3-3-0.5-4.8c-3-0.6-5.9,0.3-8.3,1.7c-5.9,3.4-12.4,5-18.7,7.2c-12.1,4.2-24.7,6.9-36.3,12.8
	c-1.7,0.8-3.4,1.5-5.2,2.2c-8.3,3.1-16.7,6.2-25,9.4c-8.2,3.1-16.3,6.3-24.5,9.4c-1.3,0.5-2.7,0.6-4.1,0.9c-0.2-1-0.5-1.4-0.4-1.8
	c1.3-5.9,2.4-12,4.3-17.8c1.4-4.1,2-8.2,1.9-12.4c-0.1-3.2-0.5-6.4-0.7-9.6c-0.2-2.7-0.3-5.4-0.4-8.1c13.8-6.6,27.3-13.1,40.8-19.7
	c1.7-0.8,3.4-1.7,4.9-2.8c0.3-0.2-0.2-1.5-0.3-1.8c5.9-3.1,11.7-6.3,17.6-9.3c4.1-2.1,8.1-4.6,12.5-6.2c6.5-2.3,12.5-6.1,19.5-6.7
	c0.3,0,0.6-0.6,0.9-0.8c1.6-0.9,3.2-2,4.9-2.6c3.9-1.3,7.8-2.3,11.7-3.5c8.5-2.5,17.1-4.8,25.5-7.4c3.7-1.1,7.3-2.7,11.3-4.3
	c-1.2-1.4-1.9-2.2-2.8-3.1c1.5-3.1,2.8-6.2,6-8.3c-2.1-0.8-3.7-1.4-6.2-2.4c2.9-1.7,4.8-2.9,7-4.2c-0.2-0.7-1-1.9-0.7-2.2
	c1.5-2.1,0.9-5.2,3.4-6.7c0.7-0.4,1.2-1.2,1.5-2c0.7-1.7,1.3-3.4,2-5.3c-1.5-2.7-6,0.5-7.6-3.1c0.9-1.1,1.7-2.1,2.6-3.2
	c-0.1-0.2-0.3-0.5-0.4-0.7c-7.4,1.4-14.9,2.8-22.3,4.2c0,0.2,0.1,0.5,0.1,0.7c2.4-0.3,4.7-0.6,7.8-1c-0.8,1.3-1.1,2.1-1.6,2.4
	c-3.1,1.6-6.1,3.6-9.3,4.6c-4.2,1.4-8.7,2.2-13.1,2.9c-11.1,1.8-22,4.2-32.8,7.6c-9.7,3.1-19.4,6.2-29.1,9.5
	c-3.3,1.1-6.2,3.4-9.5,4.2c-6.9,1.6-13.9,3.1-20.6,5.4c-2.9,1-6,1.4-8.8,2.4c-3.8,1.4-7.5,3.3-11.3,4.7c-4.3,1.5-8.5,3.8-13.2,4.1
	c-0.1-0.8-0.2-1.3-0.2-1.8c-5.5,0.7-6.5,0.1-8-4.9c-1.4-4.4-2.5-8.9-4.1-13.3c-1.1-3.1-2.7-5.9-4.3-9.3c0.2,0.1,0,0-0.3-0.2
	c-3.9-1.9-4.3-1.6-4.4,2.6c0,2.7-0.5,5.5-0.7,8.2c-0.3,3.1-0.7,6.3-1.1,9.3c3.9,1.1,4,1.2,3.1,3.8c-2.5-0.2-4.8-0.3-6.8-0.4
	c-0.7,5.4-1.4,10.4-2.1,15.5c-0.2,1.8,0.4,3.1,1.9,4c0.9-1.1,1.7-2.1,2.6-3.2c0.4,0.3,0.6,0.4,0.7,0.5c0.8,3.9-1.7,7.8-5.3,9
	c-2.8,0.9-5.3,2.5-8,3.7c-3.7,1.7-7.5,3.4-11.8,5.3c0.6-2.5,1-4.4,1.4-6.3c-0.3,0.1-0.8,0.1-1.1,0.3c-11.8,6-23.6,12-35.4,18
	c-1.9,1-4.2,2.3-6.1,2.1c-4.1-0.5-6.6,1.5-9,4.3c0.5,1.6,1.3,3.3,1.4,5c0.3,7.2-0.2,8.1-6.8,11.5c-1.6,0.9-3.7,1.8-5.4,1.5
	c-3.5-0.8-6.5,0.7-9.3,1.1c-0.7,1.6-1.2,2.8-1.8,4.1c0.3,0.6,0.6,1.3,1,1.9c2.8,4.5,6.8,8.2,9.2,13.2c1,2.1,2.8,4.4,5.8,4.7
	c1.4,0.2,2.8,0.6,4.2,1c4.9,1.6,5.8,1.4,8.8-2.2c6.3-0.5,12.4,2.6,18.7-0.5c0.9,4.2,3.7,4.6,6.8,4.2c1.3-0.2,2.7-1.1,3.8-1.9
	c4.1-2.8,8.5-4.9,12.7-6.6c2.7,1.4,3.1,3.2,2.6,5.4c-0.9,3.8-2,7.6-2.8,11.4c-0.3,1.6-0.7,3.6-0.2,5c1.4,3.6-0.4,6.5-1.1,9.7
	c-0.1,0.4-0.9,0.7-2.1,1.4c0.7-3,1.2-5.2,1.7-7.3c-1.9,1.2-1.9,3.1-2.3,4.8c-0.5,2.2-1.5,4.7-1,6.7c0.8,2.7,0.2,5.1-0.9,7.1
	c-1.2,2.1-3.6,3.5-5.5,5.1c-0.3,0.2-0.9,0.4-1.2,0.3c-3.2-1.1-5.7,0.7-8,2.4c-2.2,1.7-4.1,3.4-7.3,2.8c-0.9-0.2-2.1,0.8-3.2,1.2
	c-2.9,1.1-5.7,2.5-8.6,3.3c-2.7,0.8-5.3,3.9-8.3,0.6c-0.1-0.1-0.3,0-0.5,0.1c-0.2,0.8-0.4,1.6-0.6,2.3c-2.7,0.5-5.3,1-8.7,1.6
	c3.3,2.9,6,5.3,8.6,7.6c-0.4,1-0.8,1.9-1.1,2.6c2.6,2.9,5.1,5.6,7.6,8.4c-0.7,0.6-1.5,1.1-1.8,1.8c-0.5,1-0.9,2.3-0.6,3.2
	c0.3,1.1,1.4,2.9,2.1,2.8c2.9-0.2,5.4,2.5,8.4,1.4c0.3-0.1,0.9,0.5,2.2,1.2c-2.5,0.7-4.1,1.1-6.4,1.8c3.9,1.5,7.8-1.8,10.8,1.3
	c2.6,2.8,7.6-0.3,9.6,4c-2,5.8-3.9,11.6-5.8,17.4c-2.2,6.9-4.1,13.9-6.6,20.7c-6.4,17.9-13.1,35.7-19.5,53.6
	c-2.6,7.4-5,14.9-7.1,22.5c-2,7.5-3.6,15.2-5.3,22.9c-0.7,3.2-1.1,6.5-1.7,10.1c2.6-1.2,2.5-3.2,3-4.9c1.5-4.9,3.7-6.7,8-6.4
	c1.1-1.5,2.2-3.1,3.4-4.5c0.8-1,1.9-1.8,2.8-2.7c0.5,2.1-0.6,4.7,1.9,6.3c1-0.1,2.1-0.2,3.5-0.3c-0.3,2.1-0.5,3.9-0.8,6.6
	c1.1-1.2,1.7-1.6,2-2.2c2.2-4,2.5-9.1,7.7-11.3c1.4-0.6,2-3.1,3-4.7c0.6-1,1.2-2,1.7-2.9c1.4-2.4,3.1-4.6,4-7.2
	c2.4-6.6,4.3-13.5,6.7-20.1c0.9-2.4,2.5-4.5,4-6.6c1.7-2.3,3.8-4.3,5.5-6.6c1.2-1.6,1.6-4.2,3.1-5.1c3.6-2.3,4-6.2,5.7-9.1
	c-0.7-0.8-1.3-1.4-1.7-1.9c2.1-3.4,3.3-7.1,7.2-8.8c1.1-0.5,1.6-2.3,2.3-3.6c0.7-1.3,0.9-3,1.9-3.9c2.4-2,3.4-4.7,4.6-7.3
	c2-4.2,3.8-8.5,5.6-12.8c2.1-4.8,4.3-9.6,6-14.5c1.9-5.6,3.4-11.4,4.9-17.2c0.5-1.8,1.5-3,3.3-3.8c12.9-6,25.9-12,38-19.7
	c6-3.8,12.7-6.6,18.9-10.1c3.5-2,7.8-2.7,10-6.6C304.9,603.1,305.4,602.9,305.7,602.7z M197.8,500.2h-5.3c-1-3.1,2.1-3.5,3.1-5.2
	c1.5-2.5,3.5,0.5,5.8,0.2C200,497.2,198.9,498.7,197.8,500.2z M155.8,776.3v-2.7c0.3,0.1,0.7,0.1,1,0.2
	C156.5,774.7,156.1,775.5,155.8,776.3z M197.8,719.3c-0.3-0.1-0.7-0.2-1-0.4c0.8-2.2,1.5-4.4,2.3-6.6c0.3,0.1,0.6,0.2,0.9,0.3
	C200,715.1,198.9,717.2,197.8,719.3z M785.7,574.4c-2.6-4.4-5.5-9.1-11.4-11.4c-0.6,0.8-1.4,1.6-1.7,2.6c-0.4,1.4-0.2,2.9-0.7,4.3
	c-3,9.9-5.8,19.8-9.1,29.6c-3,8.9-8.6,16.7-9.5,26.5c-0.5,5.7-2.5,11.3-3.8,17c-2.6,11.3-4.6,22.8-7.9,34
	c-2.8,9.3-6.7,18.3-10.7,27.2c-5.7,12.6-11.8,25.1-17.9,37.5c-3.3,6.7-7.3,13-10.1,19.9c-2.4,5.9-5.6,11.2-8.6,16.6
	c-0.7,1.2-1.3,2.7-1.5,4c-0.5,3.9-2.2,7.2-4.3,10.3c-5,7.7-12.2,13.7-16.4,21.9c-0.3,0.5-0.7,0.9-1.2,1.3c-3.5,2.9-6.9,5.8-10.5,8.6
	c-1.8,1.4-3.8,2.7-5.9,3.8c-3.1,1.6-6.2,3.2-8.5,5.9c-0.9,1.1-2.2,1.9-3.5,2.5c-2.6,1.2-5.4,2.1-8,3.3c-1.3,0.6-2.4,1.8-3.9,3
	c1.8,1.3,3.2,2.2,4.6,3.2c-1.7,1-3.8,1.5-4.6,2.8c-1.1,1.8-2.4,2.2-4.3,2.4c-6.6,0.6-13.1-0.4-19.4-2.1c-0.8-0.2-1.7-0.6-2.4-1.1
	c-3.6-2.8-7.2-5.7-10.7-8.7c-1.4-1.2-2.7-2.7-4-4.1c-0.2,0.2-0.4,0.4-0.6,0.5c2.6,3.1,5.2,6.3,7.8,9.4c-3.1,0-5.9-0.3-8.1-1.5
	c-2.9-1.5-5.7-1.8-8.7-1c-1.7,0.4-3.4-0.1-3.4-1.7c0-2.1-1.4-2.2-2.6-2.9c-1.6-1-3.2-2.1-4.9-2.9c-2.7-1.4-4.4-3.4-4.3-5.8
	c-2.8-0.9-5.3-1.8-7.9-2.6c-0.3,0.7-0.7,1.6-1,2.3c-2.7,0.6-4-3-7.4-1.8c4.9,2.3,7.8,5.9,10.8,9.4c3.7,4.3,8.1,7.9,13.2,10.5
	c2.4,1.2,5.1,2.6,6.5,4.7c2.6,4,7.1,5.3,10.6,9c-0.2,3.1,0.6,4.4,3.7,5.5c0.8,0.3,1.7,0.3,2.6,0.5c4.7,1,9.4,1.8,14,3.2
	c3.7,1.1,7.2,2,11.1,2.2c5.3,0.3,10.6-0.5,15.9,0c7.5,0.7,15.1,0.6,22.7,0.8c0.8,0,1.7-0.4,2.5-0.5c6.3-1.1,11.7-5.3,18.3-5.4
	c0.8,0,1.6-0.7,2.3-1.2c6.6-3.9,12.4-8.9,17.5-14.5c11.5-12.5,21.8-25.8,29.2-41.2c1.3-2.6,2.2-5.6,4.2-7.6c2.7-2.7,4.1-5.9,5.4-9.3
	c1.5-4.1,3-8.2,4.6-12.2c4.3-10.7,9-21.2,13.1-32c3.6-9.5,6.9-19.2,9.9-28.9c3.2-10.6,6-21.3,8.8-32c1.7-6.3,3.4-12.6,4.7-19.1
	c1.6-8.3,3.1-16.6,4.1-24.9c0.8-6.5,1.6-13.2,0.9-19.6c-0.7-6.5,0.2-12.8,0.7-19.1c0.7-8.5-0.4-16.8-0.4-25.2
	C785.7,578.5,785.7,576.6,785.7,574.4z M587.4,845.9c-1.8-0.5-3.5-1-5.3-1.4l0.4-1.1c1.7,0.6,3.5,1.2,5.2,1.8
	C587.5,845.4,587.5,845.6,587.4,845.9z M825.2,523.3c0.3-0.5,0.8-1.3,0.6-1.6c-1.6-2.7,0.7-4.9,0.9-7.1c-2.3-1.3-4.4-2.5-6.6-3.8
	v-5.1c-0.9-0.2-1.8-0.4-2.6-0.5c-0.5-2.4-1-4.8-1.5-7.2c-2.2-0.9-4.8-1.2-5.1-4.2c0-0.3-0.5-0.7-0.9-0.9c-2.5-2-4.9-4-7.4-5.8
	c-0.8-0.6-1.7-1.1-2.7-1.2c-3.3-0.4-6-2.1-8.5-4.1c-1.1-0.8-2.5-1.6-3.7-1.7c-3.8-0.1-7.4-0.5-9.5-4.5c-2.6,3.5-5.6,6.3-7.2,9.7
	c-1.5,3.2-1.4,7.1-2,10.2c1.2,2.1,2.8,3.9,3.3,6c1.2,5.1,2.3,10.2,2.8,15.4c0.4,4.3,1.8,8,4.4,11.2c2.3,2.9,4.5,5.9,6.5,9
	c2,3,5.1,4.8,8.5,5.7c2.9,0.8,4.8-1.4,7-2.8c1.2-0.8,3-1.4,4.4-1.1c1.9,0.3,3.5-0.1,5-1C817,534.2,821.4,529.1,825.2,523.3z
	 M705,659.1c0.5,0,1.8-1.5,1.7-2c-0.6-2.2,1.2-3.1,2.1-4.5c3.5-5.3,7-10.6,10.5-15.9c0.1-0.1-0.2-0.5-0.3-0.9
	c-0.8,0.7-1.5,1.3-2.7,2.4c0-2.3-0.4-4,0.1-5.6c1-3.5,2.3-6.9,3.5-10.4c-0.2-0.2-0.5-0.3-0.7-0.5c-2,1.6-4,3.1-5.9,4.9
	c-2.2,2.1-4.3,4.3-6.4,6.4c-0.5,0.5-1.2,1.3-1.1,1.8c0.5,2.5-1.4,3.2-3,4.3c-0.3,0.2-0.6,0.6-0.7,0.7c0.6,0.8,1.1,1.6,1.6,2.3
	c0.8-0.5,1.7-1,3.3-2c-3,4.9-5.5,9-8,13.1c0.2,0.1,0.3,0.2,0.5,0.3c2.8-2.3,5.6-4.6,8.4-6.9c0.3,0.3,0.6,0.6,0.9,0.9
	c-4.4,5.1-8.7,10.2-13.1,15.2C698.9,661.6,701.1,658.7,705,659.1z M1257.5,620.5c5.2,0.4,9.3-2.8,12.4-9.5h-9
	c-0.5-1.8-0.9-3.1-1.3-4.5c-3,0.5-3.1,3.4-5.2,4.9c2.1,1.2,3.9,2.2,5.1,2.8C1258.8,616.5,1258.1,618.5,1257.5,620.5z M1195.8,669
	c-7,3-14.8,4.6-19.2,12.3c9.2-3.1,16.6-9,24.4-14.2C1199.3,667.7,1197.5,668.2,1195.8,669z M189.8,740.9c1.8-2.7,1.8-2.7,0.5-5.3
	c-0.5,0.8-1.2,1.4-1.4,2.1c-0.6,2.4-0.8,4.9-1.5,7.2c-1,3.5,0.7,7.2-0.8,10.8c-0.9,2.2-1,4.7-1.4,7.1c0.4,0.1,0.7,0.3,1.1,0.4
	c1.7-5.9,3.3-11.9,5.1-17.8C192,743.3,191.6,741.8,189.8,740.9z M518.1,565.2c-0.3-0.2-0.6-0.4-0.9-0.6c-1.4,3.2-4.8,5.6-3.5,10
	C515.2,571.5,516.7,568.3,518.1,565.2z M1260.4,624.3c0.3,0.3,0.6,0.6,0.9,0.9c1.5-2.5,6.1-1.5,5.5-6.3
	C1264.6,620.7,1262.5,622.5,1260.4,624.3z M549.3,839.9c2.5,1.4,5.1,2.9,7.6,4.3c0.2-0.3,0.3-0.6,0.5-0.8c-2.5-1.5-5-3-7.5-4.4
	C549.7,839.3,549.5,839.6,549.3,839.9z M1143.3,407.2c-0.6,1.7-1.3,3.5-1.9,5.2C1143.6,411.3,1144,409.5,1143.3,407.2z
	 M1252.8,636.1c0.2,0.3,0.5,0.5,0.7,0.8c1.5-1.5,3.1-3.1,4.6-4.6c-0.2-0.2-0.3-0.4-0.5-0.5C1256.1,633.2,1254.5,634.6,1252.8,636.1z
	 M1151,681.9c1.4-0.6,2.8-1.3,4.2-1.9c-0.1-0.3-0.2-0.5-0.3-0.8c-1.4,0.5-2.8,0.9-4.2,1.4C1150.8,681.1,1150.9,681.5,1151,681.9z
	 M562,847.8c1.3,0.6,2.6,1.2,4.6,2.2C565.5,847.1,564,846.9,562,847.8z M1268.5,598.4c-0.2-0.2-0.4-0.4-0.7-0.6c-1,1.1-2,2.2-3,3.2
	l0.4,0.4C1266.3,600.4,1267.4,599.4,1268.5,598.4z M1257,642.2c-0.8,0.5-1.6,1-2.4,1.5c-1.3-2.4-2.3-0.5-3.3,0.3
	c-2.7,2-5.2,4.2-7.9,6.1c-0.7,0.5-1.7,0.6-2.5,0.9c-0.2-0.3-0.3-0.5-0.5-0.8c1.2-1,2.3-2.1,3.5-3c2.6-1.8,4.9-3.8,5.6-7.6
	c-1.3,0.8-2.3,1.3-3.2,1.9c-4.4,2.9-8.8,5.6-13.1,8.6c-2.9,2-7,2.7-8.3,6.8c-0.1,0.4-0.9,0.7-1.4,1c-2.1,1.3-4.3,2.5-6.3,3.9
	c-4.1,2.7-7.9,5.9-12.3,8.1c-12,6-24.1,11.6-36.2,17.3c-2.5,1.2-5.1,2.2-7.9,0.8c-0.8-0.4-2.1-0.2-3,0.1c-3.9,1.2-7.7,2.6-11.5,3.9
	c-0.4,0.2-1,0-2.4,0c1.5-1.5,2.3-2.3,3-3c-2.2-3.7-6.8-3.3-11.2-5.6c2.6-0.8,4.3-1.8,5.8-1.7c4.8,0.1,8.8-1.9,12.5-4.4
	c4.2-2.8,8.2-6,12.4-8.8c2.4-1.6,4.4-3.2,4.9-6.2c-1.7-1.5-3.3-0.3-4.8,0.4c-3,1.3-5.4,0.6-8.3-1.4c3-3.3,6.5-4.9,10.2-6.1
	c1.7-0.6,3.1-1.2,3.5-3.5c-1.7,0.5-3,1.1-4.4,1.4c-5.3,1.4-10.9,2.2-16,4.3c-6.8,2.8-13.8,3.1-20.9,3.3c-1.1,0-2.2-0.3-3.8-0.5
	c0.6-4.5,0.6-8.8,1.8-12.8c2.7-8.9,5.6-17.7,11.1-25.4c5.2-7.2,10-14.6,15.4-21.7c7.3-9.7,12.2-20.6,15.6-32
	c2.6-8.7,4.4-17.8,4.4-26.9c0-4.4-0.1-9.1-2.4-13.2c-1.9-3.4-3.9-6.9-5.9-10.2c-0.4-0.7-1.1-1.4-1.8-1.8c-5.4-3.3-12-4.3-16.9-8.7
	c-0.5-0.4-1.4-0.4-2.1-0.6c-3.1-0.9-6.1-2.1-9.2-2.8c-1.5-0.4-3.1-0.2-4.7,0c-5.6,0.7-11.2,1.4-16.8,2.2c-0.2,0-0.5-0.2-0.9-0.4
	c0.1-0.5,0.2-1.1,0.4-1.6c3.9-8.5,8-16.8,11.6-25.4c3.6-8.6,7.3-17.2,8.5-26.8c1.1-8.9,4-17.5,8.8-25.8c-2.1,0.5-3.3,0-3.2-2
	c0.1-2.3,0.7-4.7,0.2-6.8c-0.4-1.8-3.6-2.3-3.3-4.9c-0.5,0-1,0-1.2-0.1c-0.1-2.1,0-3.8-0.3-5.5c-0.3-1.7,2.2-2.1,1.4-4.3
	c-0.5-1.3,0.9-3.3,1.5-5c-0.2-0.2-0.5-0.4-0.7-0.5c-1.4,1.8-2.7,3.7-5.6,2.7c-0.2-2.2-0.9-4.5-0.7-6.7c0.3-2.8,1.4-5.5,1.8-7.3
	c-1.4-2.4-2.3-3.9-3.3-5.6c-0.4,0-1.1-0.2-1.8-0.2c-2.5,0.2-4.1-0.1-5.4-3c-1-2.3-3.8-3.9-6.7-4.3c-0.2,0.3-0.4,0.7-0.6,1
	c1.1,0.9,2.2,1.7,3.4,2.6c-1.2,1.6-4.3,1.4-3.8,4.2c-0.8,0.1-1.7,0.3-2.4,0.1c-0.6-0.2-0.9-1-1.5-1.8c-0.8,1.1-1.5,2-2.3,3.1
	c1.2,0.7,2.1,1.2,3.7,2.1c-1.8,1.5-3.2,2.7-4.6,3.7c-1.5,1.2-2.6,2.5-2.3,4.7c3.3-2.9,3.3-2.9,5.7-2.6c-0.3,1.2-0.6,2.4-1,3.9
	c4.6-3.1,7.3-7.2,9.9-11.4c0.3,4.5-1.3,8.7-3.4,12c-2.8,4.5-2.2,9.1-2.6,13.7c-0.4,4.4-1.5,8.4-4,12.9c-4.1-3.4-7.9-6.4-11.7-9.5
	c-2,1.5-4,3.5-2.5,6.9c0.2,0.5,0,1.2-0.2,1.7c-1.1,2.8-2.1,5.7-3.4,8.5c-2,4.5-4.3,8.8-5.7,13.6c-2.6,8.7-5.9,17.3-8.9,25.9
	c1.6,0.6,1.9,1.7,1.3,3.1c-0.7,1.7-1.5,3.5-2.2,5.2c-1.2,2.8-2.7,5.5-3.8,8.3c-3.2,8.3-5.8,16.8-9.4,24.9
	c-3.8,8.6-6.6,17.6-11.3,25.9c-3.9,7-6.7,14.8-9.8,22.3c-2.2,5.3-5.8,9.5-9.6,12.1c-1.2,3-2.1,5.1-3,7.4c2.4,4,2.3,4,0.1,8.8
	c-0.5,1-0.5,2.2-0.8,3.3c-0.3,1.3-0.5,2.6-1.1,3.7c-1.6,2.9-3.5,5.6-5.2,8.5c-0.5,1-0.8,2.2-0.9,3.3c-1,6.5-3.1,12.3-8.5,16.6
	c-1.4,1.1-2.2,3-3.3,4.5c-0.4,0.5-0.7,1-1.2,1.4c-1.2,1.2-2.8,2.1-3.8,3.4c-3.3,4.3-6.4,8.6-10.7,12.1c-3.4,2.7-6.6,5.7-9.9,8.6
	c-7.7,6.6-15.3,13.4-23.2,19.8c-2.7,2.1-5.4,4.9-9.7,4.9c0.1-1.2,0-2,0.2-2.8c1.3-4.1,2.5-8.3,4-12.4c1.6-4.2,3.4-8.4,5.5-12.3
	c1.1-2,2.7-3.7,3.5-5.9c0.8-2.1,2.1-4.1,3.2-6.1c1.7-3.1,3.5-6,5-9.2c3.2-7,6-14.2,9.2-21.2c1.7-3.8,4-7.4,6-11.2
	c1-1.9,2.1-3.9,2.9-5.9c0.5-1.3,1-3,0.5-4.2c-0.9-2.3-0.9-4.5-0.6-6.8c0.3-2.5-0.5-3.1-3.1-3.6c-1.4-0.2-3-0.6-3.9-1.5
	c-2.8-2.8-6.3-4.3-10-5.1c-3.5-0.8-7.2-1.6-10.8-1.5c-4,0.1-8.2-0.2-11.9,1.9c-1.9,1.1-3.8,2-6.2,1.8c-1-0.1-2.3,0.9-3.2,1.7
	c-1.5,1.3-2.8,2.8-3.9,4c-2.5-1.1-4.5-2.1-6.5-2.7c-2.7-0.8-3.4-1.9-2.7-4.7c0.4-1.7,0.5-3.4,0.8-5.6c0.2-0.1,0.9-0.6,1.7-1
	c-3-2.9-5.7-4-9.7-4.1c-3-0.1-6.1,0.8-8.8-1.5c-0.6-0.5-2-0.2-2.9,0c-2.7,0.7-5.3,1.5-7.9,2.5c-1.7,0.7-3.6,1.4-4.8,2.7
	c-1.6,1.7-3.3,2.6-5.4,3.4c-9.1,3.1-18.3,5.9-26.9,10.4c-1.2,0.6-3,0.7-3.5,1.6c-1.3,2.3-3.5,3-5.5,4c-10.9,5.5-20,13-27.6,22.5
	c-3.1,3.9-5.9,8.1-7.7,12.9c3-2,5.5-4.6,9.6-6c-0.6,1.6-1,2.5-1.4,3.4c-3.8,8-7.7,16-11.3,24.1c-1.6,3.6-2.8,7.4-3.9,11.1
	c-3.5,10.9-5.5,22.1-4.8,33.6c0.4,6.3,1.6,12.3,5.4,17.7c2.4,3.4,4.3,7,7.3,10.2c3.4,3.7,6.6,7.4,11.7,8.7c0.6,0.2,1.6,0.5,1.7,1
	c1.4,4.4,5.4,3.8,8.3,3.7c4-0.1,8-1.4,12-2.1c0.5-0.1,1.4-0.4,1.5-0.2c1.2,2.1,2.6,0.8,3.7,0.2c3.3-1.9,6.6-3.8,9.6-6.2
	c8.8-6.8,16.5-14.7,23.8-23c0.4-0.4,0.9-1,0.9-1.4c-0.4-2.3,1.2-3.4,2.4-4.8c4.1-4.8,8.2-9.5,12.2-14.3c1.7-2,3.3-4.1,5.7-7.1
	c0.3,2.6,0.6,4,0.7,5.5c0.1,2-0.1,4.1,0.3,6c1.2,7,2.5,14,4,20.9c0.4,1.7,1.4,3.8,2.8,4.7c1.7,1.2,2.4,2.6,3,4.5
	c0.8,2.3,2.4,4.3,5,4.8c3.6,0.7,7.3,1.1,11,1.6c1.8-2.9,1.8-2.9,5-1.9c-0.2,0.9-0.3,1.8-0.6,3.4c3.9-1,7.2-1.9,11.1-2.9
	c-0.7,2.7-4.3,4-1.7,6.5c1.6-0.3,3.1-0.6,4.7-1c1.8-0.4,3.8-0.5,5.3-1.4c6.7-4.1,13.7-7.9,18.5-14.4c0.5-0.7,1.3-1.2,1.8-1.9
	c1.9-2.5,5-0.8,7.4-1.9c0.7-0.3,2.3,1.3,3.4,2.1c5.9,0.2,9.1-4.6,13.3-7.8c1,0.6,1.8,1.1,2.6,1.6c-1,1.5-1.6,3.3-2.8,4.3
	c-1.3,1-3.1,1.3-4.7,2c3.9,3.7,5.1,3.6,8-0.7c0.5-0.7,1.1-1.9,1.6-2c3.2-0.1,3.6-3,4.8-4.9c2-3,3.2-6.5,4.9-9.7
	c4.2-8.1,7.5-16.7,12.9-24.1c0.3-0.4,0.4-1,0.5-1.6c0.5-4.8,2.8-8.9,4.4-13.6c0.9,0.6,1.4,1,2.3,1.6c1.4-2.9,3-5.7,4-8.6
	c2.1-6.1,3.1-12.7,7.6-17.8c0.1-0.1,0.2-0.3,0.2-0.4c0.4-4.6,4.5-7.4,5.9-11.5c0.3-0.8,1-2,3-1c2.7,1.3,6.8-1,8.6-3.8
	c1.2-1.8,2.3-3.7,3.6-5.4c4.3-5.9,9.3-11.2,14.5-16.3c6.4-6.2,12.3-12.8,18.5-19.2c1.7-1.8,3.6-3.4,6.1-3c0.4,1.3,0.8,2.3,1,3.4
	c0.2,0.8,0.4,1.8,0.1,2.5c-1.9,4.9-3.9,9.7-6.1,14.5c-1.1,2.4-3.6,4.4-0.6,7.1c0.1,0.1,0.1,0.3,0,0.4c-0.6,1.4-0.8,2.6,0.5,4
	c0.5,0.6-1,2.8-1.5,4.3c-1.5,4.4-3,8.8-4.6,13.2c-1.2,3.3-2.7,6.4-3.8,9.7c-0.9,2.8-3.5,5.4-1.3,8.7c0.2,0.3-0.1,0.8-0.2,1.3
	c-0.7,3-1.1,6-2.2,8.8c-1,2.7,0.7,6.1-2.5,7.9c2.8,5.6,2.6,11.5,2.4,17.2c-0.2,5.3-1.2,10.5,2,15.3c1.6,2.5,3,5.2,4.5,7.8
	c0.6,1,1.1,2.1,1.8,3c2,2.2,4.1,4.2,7.8,4.6c-1.6-1.8-4.4-1.5-4.6-4.3c1-0.2,1.9-0.4,3.5-0.8c-1.5-1.7-2.7-3.1-4.1-4.5
	c6.4-2.5,10.1,3.5,15.3,4c1.1,3.5,4.1,4.6,7.1,5.6c0.4,0.1,0.7,0.9,1,1.4c0.8-0.7,1.5-1.4,2.5-0.3c0.8,0.9,1.7,1.9,2.7,3
	c-3.1,0.5-6.1,1.9-9.8,0.6c1.2-0.9,2.1-1.5,2.9-2.2c-2.7,0.1-5.4,0.3-8,1.4c1.2,2.3,2.4,3.4,5.4,4c5.8,1.2,11.6,2.6,17.5,3.1
	c4.7,0.4,9.6-0.1,14.3-0.8c5.9-0.8,11.6-2.5,17.4-3.4c7.7-1.2,14.8-4,22-6.7c6.5-2.5,12.7-5.7,18.9-9c5.5-2.9,11.1-5.9,16.1-9.6
	c6-4.4,11.5-9.5,17.1-14.3c0.6-0.5,0.9-1.2,1.6-2.1c-1.3,0.1-2,0.2-3.1,0.3c2-2.2,3.8-4.1,5.5-6c-0.8-1-1.3-1.7-1.9-2.4
	c1.4-2.1,2.6-4.1,3.8-6.1C1257.4,642.4,1257.2,642.3,1257,642.2z M1135.9,510.7c-2.3,2.4-4.8,2.4-7.5,1.6
	C1130.6,511.2,1132.7,508.8,1135.9,510.7z M829.6,632.1c-2.8,8.2-5.8,16.4-8.5,24.6c-3.3,10-4.5,20.3-4.5,30.9
	c0,0.5-0.2,1.1-0.5,2.5c-0.7-1.5-1.4-2.4-1.4-3.2c0-2.6,0.3-5.2,0.5-7.7c0-0.9,0-1.9-0.3-2.8c-2.3-7.6-1.6-15.2,0.8-22.6
	c1.3-4,3-7.9,4.7-11.7c0.6-1.4,2-2.3,2.8-3.6c1.6-2.7,3.1-5.5,4.7-8.3c0.4-0.7,1.1-1.3,1.7-2c0.3,0.2,0.6,0.3,0.9,0.5
	C830.1,629.7,830,630.9,829.6,632.1z M925.4,600.4c-2,2.5-3.7,5.2-5.7,7.7c-4.5,5.6-9.5,10.9-13.7,16.8
	c-7.2,10.2-16.1,19.1-24.3,28.4c-5.5,6.3-12.1,11.8-19.1,16.5c-6.2,4.2-12.3,8.4-18.8,12.9c-0.4-3.6,1.3-6,2.4-8.4
	c3.1-6.3,5.3-12.8,7.2-19.6c1.2-4.1,3.6-7.8,5.6-12c-0.2-0.3-1.1-1.1-0.9-1.7c1.4-4.1,3-8.1,4.4-12.2c0.5-1.5,0.6-3.2,1.3-4.6
	c0.2-0.4,0.4-0.8,0.6-1.2c1.4-2.7,2.8-5.4,5.3-7.4c-1.2-0.2-1.1-1.1-0.4-1.7c1.9-1.6,3.7-3.3,5.9-4.5c7.7-4.4,15.6-8.5,23.4-12.8
	c1.3-0.7,2.5-1.1,3-3c0.7-2.2,2.5-4,5.1-4.5c1.3-0.3,2.6-0.8,3.6-1.5c5.4-3.4,11-2.6,16.7-0.8c2.4,0.8,4.9,1,7.7,1.6
	C931.6,592.5,928.5,596.5,925.4,600.4z M1103.8,677.5c1.3,0.9,2.3,1.6,3.3,2.3C1105.1,681.5,1104.9,681.4,1103.8,677.5z
	 M1133.8,700.2c-0.2-0.3-0.4-0.6-0.6-0.9c0.5-0.3,1-0.7,1.5-1c0.2,0.2,0.3,0.4,0.5,0.6C1134.7,699.4,1134.3,699.8,1133.8,700.2z
	 M870.4,615.6c1.7-0.7,3.4-1.4,5.2-2.1c-0.2-0.3-0.4-0.6-0.5-1C873.5,613.5,872,614.5,870.4,615.6z M869.9,615.9l0.5-0.4
	C870.2,615.7,870,615.7,869.9,615.9C869.8,615.8,869.9,615.9,869.9,615.9z"/>
</svg>
